<svg width="80" height="80" viewBox="0 0 80 80" fill="none" xmlns="http://www.w3.org/2000/svg">
<path fill-rule="evenodd" clip-rule="evenodd" d="M22.6867 21.3516C21.9877 21.3518 21.2995 21.525 20.6833 21.8557C20.0671 22.1865 19.542 22.6646 19.1545 23.2475L10.4478 36.3298C9.91652 37.1319 9.85345 38.1577 10.2828 39.0182C15.0503 48.5646 21.6714 57.0616 29.7583 64.0111L34.0038 67.6596C34.5446 68.1242 35.2334 68.3795 35.9457 68.3795C36.658 68.3795 37.3469 68.1242 37.8877 67.6596L42.1331 64.0135C50.2211 57.0635 56.8432 48.5657 61.611 39.0182C62.0404 38.1577 61.9749 37.1319 61.4436 36.3298L52.7321 23.2475C52.3446 22.6654 51.8197 22.188 51.204 21.8577C50.5883 21.5274 49.9007 21.3544 49.2023 21.354L22.6867 21.3516ZM22.1821 25.2675C22.2376 25.1844 22.3127 25.1163 22.4007 25.0692C22.4887 25.0222 22.5869 24.9976 22.6867 24.9977H28.3634L23.7177 36.1694C23.6145 36.4261 23.5333 36.6912 23.4751 36.9618C21.7666 36.8341 20.0602 36.6801 18.3564 36.5L14.9479 36.1426L22.1821 25.2675ZM14.7903 39.7912C19.1456 47.7919 24.8914 54.9493 31.7573 60.9265L24.1762 40.6687C22.1079 40.5262 20.0423 40.3463 17.9804 40.1291L14.7903 39.7912ZM28.1475 40.8947L35.9445 61.7359L43.7439 40.8947C38.547 41.1308 33.342 41.1308 28.1451 40.8947M47.7152 40.6687L40.1341 60.9265C47.0001 54.9493 52.7459 47.7919 57.1012 39.7912L53.9111 40.1291C51.849 40.3446 49.7837 40.5245 47.7152 40.6687ZM56.9411 36.1426L53.5302 36.5024C51.8264 36.6826 50.12 36.8365 48.4115 36.9642C48.3542 36.6929 48.2738 36.427 48.1713 36.1694L43.5256 24.9977H49.2023C49.3021 24.9976 49.4003 25.0222 49.4884 25.0692C49.5764 25.1163 49.6514 25.1844 49.7069 25.2675L56.9411 36.1426ZM44.6585 37.2C38.8508 37.5014 33.0415 37.5014 27.2305 37.2L32.3056 24.9977H39.5834L44.6585 37.2Z" fill="white"/>
<path d="M56.377 24.27C61.1203 24.27 63.188 22.2744 63.188 17.459C63.188 22.2744 65.241 24.27 69.9989 24.27C65.241 24.27 63.188 26.323 63.188 31.0809C63.188 26.323 61.1203 24.27 56.377 24.27ZM50.5391 15.9996C53.5884 15.9996 54.9175 14.7172 54.9175 11.6211C54.9175 14.7172 56.2379 15.9996 59.296 15.9996C56.2379 15.9996 54.9175 17.3199 54.9175 20.378C54.9175 17.3199 53.5884 15.9996 50.5391 15.9996Z" fill="white" stroke="white" stroke-width="1.45949" stroke-linejoin="round"/>
</svg>
