<svg width="80" height="80" viewBox="0 0 80 80" fill="none" xmlns="http://www.w3.org/2000/svg">
<path d="M50.6408 34.0746C51.0669 33.7019 51.6158 33.4962 52.1842 33.4962C52.7527 33.4962 53.3016 33.7019 53.7276 34.0746C55.7949 36.0216 59.7549 39.119 64.6247 39.7546C65.5995 39.8793 66.3996 40.6033 66.3996 41.5124V50.0082C66.3996 61.4243 55.0963 65.5676 52.6472 66.3279C52.3475 66.4235 52.025 66.4235 51.7253 66.3279C49.2802 65.5636 37.9688 61.4283 37.9688 50.0082V41.5124C37.9688 40.6073 38.769 39.8752 39.7437 39.7505C44.6135 39.115 48.5776 36.0216 50.6408 34.0746ZM34.2363 39.7465C34.0156 40.3108 33.904 40.9113 33.9073 41.5165V43.7691H19.6919C19.1533 43.7691 18.6368 43.981 18.2559 44.3582C17.8751 44.7354 17.6611 45.247 17.6611 45.7804V47.7917C17.6611 53.5762 23.4773 59.8595 33.9073 59.8595C34.8442 59.8568 35.7458 59.8059 36.6123 59.7067C37.453 61.0663 38.4359 62.265 39.4838 63.3149C37.6501 63.6965 35.781 63.8866 33.9073 63.8821C21.1541 63.8821 13.5996 55.7203 13.5996 47.7917V45.7804C13.5996 44.1801 14.2415 42.6454 15.384 41.5138C16.5265 40.3822 18.0761 39.7465 19.6919 39.7465H34.2363ZM33.9073 13.5996C36.8696 13.5996 39.7105 14.7651 41.8051 16.8396C43.8998 18.9142 45.0765 21.7279 45.0765 24.6618C45.0765 27.5956 43.8998 30.4093 41.8051 32.4839C39.7105 34.5584 36.8696 35.7239 33.9073 35.7239C30.945 35.7239 28.1041 34.5584 26.0095 32.4839C23.9148 30.4093 22.7381 27.5956 22.7381 24.6618C22.7381 21.7279 23.9148 18.9142 26.0095 16.8396C28.1041 14.7651 30.945 13.5996 33.9073 13.5996ZM33.9073 17.6222C32.0222 17.6222 30.2144 18.3639 28.8814 19.684C27.5485 21.0042 26.7996 22.7948 26.7996 24.6618C26.7996 26.5288 27.5485 28.3193 28.8814 29.6395C30.2144 30.9596 32.0222 31.7013 33.9073 31.7013C35.7924 31.7013 37.6002 30.9596 38.9332 29.6395C40.2661 28.3193 41.015 26.5288 41.015 24.6618C41.015 22.7948 40.2661 21.0042 38.9332 19.684C37.6002 18.3639 35.7924 17.6222 33.9073 17.6222Z" fill="white"/>
</svg>
