<svg width="80" height="80" viewBox="0 0 80 80" fill="none" xmlns="http://www.w3.org/2000/svg">
<path d="M32.233 13.5996C30.0528 13.5996 27.9618 14.4779 26.4201 16.0412C24.8785 17.6046 24.0124 19.7249 24.0124 21.9358V28.4194H20.3587C19.3897 28.4194 18.4604 28.8098 17.7752 29.5046C17.09 30.1994 16.7051 31.1418 16.7051 32.1244V57.1328C16.7051 59.3437 17.5712 61.464 19.1129 63.0273C20.6545 64.5907 22.7455 65.4689 24.9258 65.4689H44.8015L41.1479 61.764H24.9258C23.7145 61.764 22.5529 61.2761 21.6964 60.4076C20.8399 59.539 20.3587 58.3611 20.3587 57.1328V32.1244H40.4537V36.7556H44.1074V32.1244H53.2414V38.4006C53.3328 38.4821 53.4211 38.5667 53.5063 38.6544L56.8951 42.0907V32.1244C56.8951 31.1418 56.5101 30.1994 55.825 29.5046C55.1398 28.8098 54.2105 28.4194 53.2414 28.4194H49.5842V21.9358C49.5842 20.4266 49.1801 18.9457 48.4152 17.6511C47.6502 16.3565 46.553 15.2968 45.2407 14.585C43.9283 13.8732 42.45 13.5361 40.9635 13.6095C39.477 13.6829 38.038 14.1642 36.8001 15.0019C35.4479 14.0869 33.8586 13.5989 32.233 13.5996ZM45.9305 28.4194H40.4537V21.9358C40.454 20.4755 40.0761 19.0407 39.3576 17.7751C40.0539 17.4299 40.8254 17.2701 41.5994 17.3107C42.3733 17.3513 43.1244 17.591 43.7819 18.0071C44.4393 18.4233 44.9815 19.0023 45.3574 19.6896C45.7333 20.3769 45.9305 21.1499 45.9305 21.9358V28.4194ZM27.666 21.9358C27.666 20.7075 28.1472 19.5295 29.0036 18.661C29.8601 17.7925 31.0218 17.3046 32.233 17.3046C33.4443 17.3046 34.6059 17.7925 35.4624 18.661C36.3189 19.5295 36.8001 20.7075 36.8001 21.9358V28.4194H27.666V21.9358ZM62.0102 51.2086C62.8318 52.0423 63.2933 53.1727 63.2933 54.3513C63.2933 55.5299 62.8318 56.6603 62.0102 57.494L54.5111 65.0985C53.6889 65.9316 52.5742 66.3996 51.4119 66.3996C50.2496 66.3996 49.1348 65.9316 48.3127 65.0985L37.8706 54.5097C37.1854 53.815 36.8003 52.8728 36.8001 51.8903V43.2392C36.8001 42.2566 37.185 41.3143 37.8702 40.6194C38.5554 39.9246 39.4847 39.5343 40.4537 39.5343H48.985C49.9539 39.5345 50.8831 39.925 51.5681 40.6198L62.0102 51.2086ZM41.3671 46.018C41.3671 46.5093 41.5596 46.9804 41.9022 47.3279C42.2448 47.6753 42.7094 47.8704 43.1939 47.8704C43.6784 47.8704 44.1431 47.6753 44.4857 47.3279C44.8283 46.9804 45.0208 46.5093 45.0208 46.018C45.0208 45.5266 44.8283 45.0555 44.4857 44.7081C44.1431 44.3606 43.6784 44.1655 43.1939 44.1655C42.7094 44.1655 42.2448 44.3606 41.9022 44.7081C41.5596 45.0555 41.3671 45.5266 41.3671 46.018Z" fill="white"/>
</svg>
