<svg width="34" height="48" viewBox="0 0 34 48" fill="none" xmlns="http://www.w3.org/2000/svg">
<path d="M17 3L32.521 6.486C32.9404 6.58024 33.3156 6.81621 33.5845 7.15495C33.8533 7.4937 33.9999 7.91499 34 8.34927V27.4154C33.9999 29.301 33.5391 31.1575 32.6587 32.82C31.7782 34.4825 30.5053 35.8996 28.9529 36.9455L17 45L5.04711 36.9455C3.49496 35.8998 2.2222 34.483 1.34177 32.8209C0.461334 31.1587 0.000446451 29.3026 0 27.4173V8.34927C7.3738e-05 7.91499 0.146649 7.4937 0.415536 7.15495C0.684422 6.81621 1.05955 6.58024 1.479 6.486L17 3ZM17 6.91173L3.77778 9.88036V27.4154C3.7778 28.6724 4.08486 29.91 4.67172 31.0184C5.25857 32.1267 6.10706 33.0715 7.14189 33.7688L17 40.4125L26.8581 33.7688C27.8927 33.0716 28.741 32.1272 29.3278 31.0192C29.9147 29.9112 30.2219 28.674 30.2222 27.4173V9.88036L17 6.91173ZM25.4093 16.7875L28.0821 19.4869L16.0612 31.6364L8.04667 23.5361L10.7176 20.8366L16.0593 26.2355L25.4093 16.7875Z" fill="#EA5C2B"/>
</svg>
