<svg width="51" height="48" viewBox="0 0 51 48" fill="none" xmlns="http://www.w3.org/2000/svg">
<path d="M22.0011 44L40.071 34.6484C40.7732 34.2839 41.1243 34.1039 41.3799 33.835C41.6063 33.599 41.7778 33.316 41.8822 33.0061C42.0022 32.6527 42.0022 32.2594 42.0022 31.4682V14.0717M22.0011 44L3.93122 34.6484C3.22896 34.2839 2.87783 34.1039 2.62226 33.835C2.39589 33.599 2.2244 33.316 2.12001 33.0061C2 32.6527 2 32.2571 2 31.4638V14.0717M22.0011 44V23.8589M42.0022 14.0717L22.0011 23.8589M42.0022 14.0717L32.0016 8.89365M2 14.0717L20.3766 4.5623C20.9721 4.25562 21.2677 4.10006 21.5811 4.04005C21.8585 3.98665 22.1436 3.98665 22.4211 4.04005C22.7322 4.10006 23.03 4.25562 23.6234 4.5623L32.0016 8.89365M2 14.0717L12.0005 18.9675M22.0011 23.8589L12.0005 18.9653M32.0016 8.89365L12.0005 18.9653M12.0005 18.9653V23.8589" stroke="#EA5C2B" stroke-width="3.33351" stroke-linecap="round" stroke-linejoin="round"/>
<rect x="26.5" y="22.5" width="23" height="23" rx="11.5" fill="#EA5C2B"/>
<rect x="26.5" y="22.5" width="23" height="23" rx="11.5" stroke="#EA5C2B" stroke-width="3"/>
<path fill-rule="evenodd" clip-rule="evenodd" d="M48 34C48 39.5227 43.5227 44 38 44C32.4773 44 28 39.5227 28 34C28 28.4773 32.4773 24 38 24C43.5227 24 48 28.4773 48 34ZM33.4545 34.9091L34.8182 33.5455L36.6364 35.3636L41.1818 30.8182L42.5455 32.1818L36.6364 38.0909L33.4545 34.9091Z" fill="white"/>
</svg>
