<svg width="55" height="50" viewBox="0 0 55 50" fill="none" xmlns="http://www.w3.org/2000/svg">
<path d="M2.34766 15.1429C2.34766 18.6286 3.75241 21.9715 6.2529 24.4363C8.75338 26.901 12.1448 28.2857 15.681 28.2857C19.2172 28.2857 22.6086 26.901 25.1091 24.4363C27.6096 21.9715 29.0143 18.6286 29.0143 15.1429C29.0143 11.6572 27.6096 8.31422 25.1091 5.84945C22.6086 3.38469 19.2172 2 15.681 2C12.1448 2 8.75338 3.38469 6.2529 5.84945C3.75241 8.31422 2.34766 11.6572 2.34766 15.1429Z" stroke="#EA5C2B" stroke-width="3.83333" stroke-linecap="round" stroke-linejoin="round"/>
<path d="M9.78711 15.1431H15.6804V9.33398M32.3471 25.0003H35.6804C36.5645 25.0003 37.4123 25.3464 38.0375 25.9626C38.6626 26.5788 39.0138 27.4146 39.0138 28.286M39.0138 28.286V39.8692M39.0138 28.286H45.6804C47.4485 28.286 49.1442 28.9783 50.3945 30.2107C51.6447 31.4431 52.3471 33.1146 52.3471 34.8574V41.4288C52.3471 42.3003 51.9959 43.136 51.3708 43.7522C50.7457 44.3684 49.8978 44.7146 49.0138 44.7146H43.9293M17.3471 44.7146H15.6804C14.7964 44.7146 13.9485 44.3684 13.3234 43.7522C12.6983 43.136 12.3471 42.3003 12.3471 41.4288V34.8574" stroke="#EA5C2B" stroke-width="3.83333" stroke-linecap="round" stroke-linejoin="round"/>
<path d="M35.7654 44.7146H25.681M52.3476 34.8574H45.681M35.681 43.8931C35.681 44.9824 36.12 46.0271 36.9014 46.7973C37.6828 47.5676 38.7426 48.0003 39.8476 48.0003C40.9527 48.0003 42.0125 47.5676 42.7939 46.7973C43.5753 46.0271 44.0143 44.9824 44.0143 43.8931C44.0143 42.8039 43.5753 41.7592 42.7939 40.9889C42.0125 40.2187 40.9527 39.786 39.8476 39.786C38.7426 39.786 37.6828 40.2187 36.9014 40.9889C36.12 41.7592 35.681 42.8039 35.681 43.8931ZM17.3477 43.8931C17.3477 44.9824 17.7866 46.0271 18.568 46.7973C19.3494 47.5676 20.4093 48.0003 21.5143 48.0003C22.6194 48.0003 23.6792 47.5676 24.4606 46.7973C25.242 46.0271 25.681 44.9824 25.681 43.8931C25.681 42.8039 25.242 41.7592 24.4606 40.9889C23.6792 40.2187 22.6194 39.786 21.5143 39.786C20.4093 39.786 19.3494 40.2187 18.568 40.9889C17.7866 41.7592 17.3477 42.8039 17.3477 43.8931Z" stroke="#EA5C2B" stroke-width="3.83333" stroke-linecap="round" stroke-linejoin="round"/>
</svg>
