<svg width="48" height="48" viewBox="0 0 48 48" fill="none" xmlns="http://www.w3.org/2000/svg">
<path d="M23.0808 21.0305C23.1656 20.8609 23.2968 20.7181 23.4597 20.6183C23.6226 20.5184 23.8106 20.4655 24.0024 20.4655C24.1942 20.4655 24.3822 20.5184 24.5451 20.6183C24.708 20.7181 24.8393 20.8609 24.924 21.0305L27.991 27.1553C28.0646 27.3028 28.1735 27.4303 28.3083 27.527C28.4431 27.6237 28.5998 27.6866 28.7647 27.7103L35.6231 28.6926C35.8126 28.7199 35.9907 28.7989 36.1371 28.9207C36.2835 29.0424 36.3925 29.2021 36.4517 29.3817C36.5109 29.5613 36.5179 29.7536 36.4721 29.937C36.4263 30.1203 36.3293 30.2873 36.1923 30.4193L31.2296 35.187C31.1103 35.3016 31.021 35.443 30.9694 35.5992C30.9179 35.7553 30.9056 35.9214 30.9337 36.0833L32.105 42.8157C32.1373 43.0018 32.1161 43.1931 32.0439 43.3679C31.9716 43.5428 31.8513 43.6943 31.6963 43.8053C31.5414 43.9163 31.3581 43.9824 31.167 43.9961C30.976 44.0099 30.7848 43.9707 30.6152 43.8831L24.4812 40.7052C24.3337 40.6288 24.1696 40.5888 24.0029 40.5888C23.8363 40.5888 23.6721 40.6288 23.5246 40.7052L17.3907 43.8831C17.2209 43.9713 17.0296 44.0109 16.8382 43.9974C16.6468 43.984 16.4631 43.9179 16.3078 43.8068C16.1525 43.6958 16.0319 43.544 15.9596 43.3689C15.8873 43.1937 15.8663 43.0021 15.8988 42.8157L17.0701 36.0833C17.0983 35.9215 17.0862 35.7554 17.0348 35.5993C16.9835 35.4432 16.8944 35.3017 16.7752 35.187L11.8125 30.4193C11.6752 30.2874 11.578 30.1203 11.532 29.9368C11.486 29.7533 11.493 29.5608 11.5522 29.381C11.6114 29.2012 11.7205 29.0414 11.8671 28.9196C12.0137 28.7977 12.192 28.7188 12.3818 28.6916L19.2401 27.7093C19.405 27.6857 19.5615 27.6229 19.6963 27.5264C19.8311 27.4299 19.94 27.3026 20.0138 27.1553L23.0808 21.0305ZM36.332 4H11.6728V14.127L24.0024 19.1905L36.332 14.127V4Z" stroke="#EA5C2B" stroke-width="4.05079" stroke-linecap="round" stroke-linejoin="round"/>
</svg>
