<svg width="37" height="40" viewBox="0 0 37 40" fill="none" xmlns="http://www.w3.org/2000/svg">
<path fill-rule="evenodd" clip-rule="evenodd" d="M11.8657 28.3273L11.0603 38.9672C11.0037 39.7149 11.6752 40.2298 12.2758 39.8965C16.5282 37.5388 29.8488 28.8789 36.6001 9.84581C36.9098 8.97272 36.0779 8.18487 35.3675 8.67735C31.3795 11.4418 22.664 17.1556 17.2779 18.244C17.2779 18.244 20.7271 15.8726 22.7917 12.2324C22.994 11.8755 22.9772 11.4187 22.7516 11.0966L15.2227 0.355128C14.7765 -0.28161 13.8608 -0.0177956 13.6997 0.793833L11.3558 12.5991L0.354343 22.1032C-0.197263 22.5796 -0.0847382 23.5423 0.552113 23.7972L11.8657 28.3273Z" fill="#EA5C2B"/>
<path fill-rule="evenodd" clip-rule="evenodd" d="M31.3201 24.1339C30.6235 25.0962 29.1226 27.0756 27.7369 28.2853C27.4599 28.5271 27.4972 28.9327 27.8151 29.1303L35.1367 33.6797C35.5774 33.9535 36.1728 33.6285 36.0983 33.1535C35.7578 30.9793 34.7764 26.4461 32.2957 24.0666C32.0186 23.801 31.5411 23.8289 31.3201 24.1339Z" fill="#EA5C2B"/>
</svg>
